<?xml version="1.0" encoding="UTF-8" standalone="no"?>
<!-- Created with Inkscape (http://www.inkscape.org/) -->

<svg
   width="11.641666mm"
   height="11.641666mm"
   viewBox="0 0 11.641666 11.641666"
   version="1.1"
   id="svg21"
   inkscape:version="1.2.2 (b0a8486541, 2022-12-01)"
   sodipodi:docname="Gridius.svg"
   xml:space="preserve"
   inkscape:export-filename="EnemyShip.png"
   inkscape:export-xdpi="96"
   inkscape:export-ydpi="96"
   xmlns:inkscape="http://www.inkscape.org/namespaces/inkscape"
   xmlns:sodipodi="http://sodipodi.sourceforge.net/DTD/sodipodi-0.dtd"
   xmlns:xlink="http://www.w3.org/1999/xlink"
   xmlns="http://www.w3.org/2000/svg"
   xmlns:svg="http://www.w3.org/2000/svg"><sodipodi:namedview
     id="namedview23"
     pagecolor="#ffffff"
     bordercolor="#000000"
     borderopacity="0.25"
     inkscape:showpageshadow="2"
     inkscape:pageopacity="0.0"
     inkscape:pagecheckerboard="0"
     inkscape:deskcolor="#d1d1d1"
     inkscape:document-units="mm"
     showgrid="false"
     inkscape:zoom="14.164769"
     inkscape:cx="33.851593"
     inkscape:cy="20.685124"
     inkscape:window-width="1920"
     inkscape:window-height="1011"
     inkscape:window-x="0"
     inkscape:window-y="0"
     inkscape:window-maximized="1"
     inkscape:current-layer="layer2" /><defs
     id="defs18"><linearGradient
       inkscape:collect="always"
       id="linearGradient1107"><stop
         style="stop-color:#bb1c00;stop-opacity:1;"
         offset="0"
         id="stop1103" /><stop
         style="stop-color:#c02800;stop-opacity:0.97647059;"
         offset="0.27090147"
         id="stop1209" /><stop
         style="stop-color:#d19100;stop-opacity:0.92625707;"
         offset="1"
         id="stop1105" /></linearGradient><radialGradient
       inkscape:collect="always"
       xlink:href="#linearGradient1107"
       id="radialGradient1158"
       cx="1.355774"
       cy="6.2816143"
       fx="1.355774"
       fy="6.2816143"
       r="5.8208041"
       gradientTransform="matrix(1,0,0,0.44605479,0.79361957,3.0101084)"
       gradientUnits="userSpaceOnUse" /></defs><g
     inkscape:label="Spaceship"
     inkscape:groupmode="layer"
     id="layer1"
     transform="translate(-37.794331,-228.5312)"
     style="display:none"><g
       id="g1751"
       transform="matrix(0,0.08608116,-0.08608116,0,59.96715,221.68372)"><g
         id="g1730"><path
           style="fill:#0081c9;fill-opacity:1;stroke-width:0.264583"
           d="m 122.39658,153.11751 c 0.97702,-6.10993 5.64975,-14.68387 10.8765,-19.95718 2.9705,-2.99695 13.67874,-11.13991 14.21659,-10.81084 2.102,1.28607 11.71811,8.9514 13.56466,10.81285 5.19391,5.23579 9.90657,13.88953 10.88036,19.97933 l 0.16748,1.04735 h -24.93846 -24.93847 z"
           id="path1142" /><g
           id="g1509"
           transform="translate(5.7093387,52.560283)"><path
             style="fill:#0081c9;fill-opacity:1;stroke-width:0.264583"
             d="m 157.32937,152.45895 v -19.81354 l 0.7393,-1.41519 c 2.28463,-4.37328 9.53299,-4.28371 11.59439,0.14328 0.62572,1.34378 0.62572,1.34378 0.6283,21.12138 l 0.003,19.7776 h -6.48229 -6.48229 z"
             id="path1140" /><path
             style="fill:#0081c9;fill-opacity:1;stroke-width:0.264583"
             d="m 112.61479,152.60051 c 0,-14.00283 0.0868,-19.93116 0.30112,-20.57136 1.57584,-4.70664 9.12055,-5.46834 11.73613,-1.18486 l 0.79504,1.30202 0.071,20.06309 0.071,20.06308 h -6.48716 -6.48715 z"
             id="path1138" /></g></g><g
         id="g1505"
         transform="translate(5.7093387,52.560283)"
         style="fill:#ad0000;fill-opacity:1"><path
           style="fill:#ad0000;fill-opacity:1;stroke-width:0.264583"
           d="m 178.14632,176.33249 c -0.24699,-0.24699 -0.22811,-40.04859 0.019,-40.02191 0.10914,0.0118 4.81362,4.9222 10.4544,10.91203 l 10.25596,10.89061 -0.0695,9.13015 -0.0695,9.13015 -10.20545,0.0692 c -5.61299,0.0381 -10.28619,-0.0115 -10.38489,-0.11024 z"
           id="path1136" /><path
           style="fill:#ad0000;fill-opacity:1;stroke-width:0.264583"
           d="m 84.219241,176.33249 c -0.0987,-0.0987 -0.17945,-4.23946 -0.17945,-9.20169 v -9.02223 l 10.2526,-10.88758 c 5.63893,-5.98817 10.342649,-10.89754 10.452709,-10.90971 0.11005,-0.0122 0.16958,8.99686 0.13229,20.02006 l -0.0678,20.04218 -10.205439,0.0692 c -5.613,0.0381 -10.2862,-0.0115 -10.3849,-0.11024 z"
           id="path1134" /></g><path
         style="fill:#ad0000;fill-opacity:1;stroke:none;stroke-width:0.264583;stroke-opacity:1"
         d="m 145.436,257.03516 c -5.04889,-2.21817 -8.57261,-5.48546 -11.11717,-10.30813 l -0.94231,-1.78593 h -3.28751 -3.28751 l -0.80302,-1.38907 c -1.53195,-2.64998 -2.24182,-7.37001 -1.51208,-10.05416 l 0.19781,-0.72761 h 7.13871 7.13871 v -24.15378 c 0,-28.8878 0.16829,-27.54333 -3.96521,-31.67684 -2.99586,-2.99585 -5.56523,-3.96521 -10.51017,-3.96521 h -2.98712 v -5.55625 -5.55625 h 25.66458 25.66458 v 5.55625 5.55625 h -2.98712 c -4.94495,0 -7.51431,0.96936 -10.51017,3.96521 -4.13351,4.13351 -3.96521,2.78904 -3.96521,31.67684 v 24.15378 h 7.13871 7.13871 l 0.19781,0.72761 c 0.72973,2.68415 0.0199,7.40418 -1.51208,10.05416 l -0.80302,1.38907 h -3.29748 -3.29749 l -0.70254,1.38906 c -2.46462,4.87303 -6.4023,8.627 -11.1385,10.61884 -1.96616,0.82688 -1.96783,0.82692 -3.65391,0.0862 z"
         id="path572" /></g></g><g
     inkscape:groupmode="layer"
     id="layer3"
     inkscape:label="Asteroid"
     style="display:none"><g
       id="g4848"
       transform="matrix(0.09308941,0,0,0.09308941,10.915047,-17.502282)"><g
         id="g1879"
         transform="translate(-93.387542,14.946983)"
         style="fill:#646565;fill-opacity:1;stroke:#da2625;stroke-opacity:1"><path
           style="fill:#646565;fill-opacity:1;stroke:#da2625;stroke-width:3.165;stroke-dasharray:none;stroke-opacity:1"
           d="m 60.045843,296.31613 c -1.23349,-0.26014 -3.062181,-1.09137 -5.964007,-2.71092 -5.374544,-2.99962 -6.80681,-3.10954 -13.116683,-1.0067 -8.704596,2.90091 -14.075143,2.79744 -21.543732,-0.41506 -8.996409,-3.86966 -16.0074202,-10.18199 -21.9535017,-19.76574 -4.0996617,-6.60773 -4.8232413,-7.59182 -8.0767053,-10.98451 -8.595727,-8.96358 -11.523024,-16.3073 -11.494105,-28.83528 0.03523,-15.26375 2.763127,-24.33802 9.156588,-30.45919 3.8443827,-3.68065 7.0407365,-5.0902 15.5429291,-6.85421 14.7393949,-3.05809 21.5261579,-5.7726 32.0386749,-12.81453 5.155623,-3.45356 8.499887,-5.43301 8.300301,-4.9129 -0.195722,0.51005 1.313601,3.66333 2.64963,5.53561 6.784586,9.50774 21.730723,13.19102 32.309103,7.96216 3.255481,-1.60918 3.798644,-2.08553 3.170055,-2.78011 -0.26067,-0.28804 -0.395714,-0.5237 -0.300098,-0.5237 0.269266,0 2.485024,3.09686 3.681335,5.14523 1.579761,2.70492 2.938309,5.97516 4.952058,11.92039 2.392002,7.06196 3.089116,8.83959 5.966108,15.21354 3.633062,8.04903 4.313965,10.79921 4.006064,16.18059 -0.645684,11.28507 -5.749081,21.64806 -13.538022,27.49041 -6.268027,4.70153 -9.881158,10.16076 -11.789606,17.81339 -2.891879,11.59607 -7.265301,16.22107 -13.996386,14.80153 z m 2.370368,-12.52134 c 0.291041,-0.29104 0.529166,-0.63263 0.529166,-0.75909 0,-3.21278 2.304579,-10.03884 4.14994,-12.29194 1.465566,-1.78938 -0.262322,-4.22764 -2.129129,-3.00446 -2.237449,1.46603 -5.311566,9.46241 -5.525251,14.37227 -0.08399,1.92985 1.712373,2.94613 2.975274,1.68322 z M 14.972426,271.87092 c 2.654221,-1.00566 3.83531,-4.74788 2.472365,-7.83357 -2.653858,-6.0083 -10.3264941,-5.13083 -10.3264941,1.18098 0,4.50994 4.1752731,8.04647 7.8541291,6.65259 z m 58.524717,-13.58708 c 7.818926,-3.99149 7.050309,-14.91331 -0.991529,-14.08931 -7.585209,0.77721 -11.665809,11.60366 -5.470141,14.51311 1.584156,0.74391 4.556075,0.54899 6.46167,-0.4238 z m -35.158014,-9.92558 c 5.862579,-2.96866 5.483603,-9.57777 -0.546555,-9.53163 -6.339404,0.0485 -10.634112,7.18443 -5.88083,9.77135 1.392428,0.75781 4.70114,0.63441 6.427385,-0.23972 z m -44.9338525,-3.8951 c 0.7386216,-0.66844 0.5944404,-1.79391 -0.3960479,-3.09152 -1.2960619,-1.69793 -2.2768961,-5.76129 -2.2898564,-9.48632 -0.00752,-2.16239 -1.4426772,-3.04858 -2.9524922,-1.82313 -1.165825,0.94625 -0.588671,7.78404 0.950857,11.26518 1.3063314,2.95385 3.3660503,4.33173 4.6875395,3.13579 z m 20.4573525,-5.55087 c 0.240686,-0.0924 0.726109,-0.82028 1.078719,-1.6176 1.34197,-3.03442 6.061414,-6.54124 9.245396,-6.86986 3.357102,-0.34648 3.13744,-3.66988 -0.237339,-3.59086 -5.786773,0.13548 -14.9679044,8.82809 -12.322884,11.66719 0.535618,0.57492 1.396707,0.73323 2.236108,0.41113 z m 74.482747,-0.36124 c 1.324142,-1.32415 0.0053,-13.12335 -1.818767,-16.27188 -0.628165,-1.08428 -2.228402,-1.14379 -2.999091,-0.11154 -0.505728,0.67737 -0.504571,0.69895 0.163216,3.04271 0.988742,3.47021 1.479642,6.71088 1.479642,9.76781 0,3.73572 1.417281,5.33062 3.175,3.5729 z M 61.853998,224.02966 c 10.653482,-3.31574 8.150867,-15.78497 -3.646191,-18.16707 -8.90275,-1.79768 -15.724356,4.79117 -12.255529,11.83736 2.534653,5.14862 10.065308,8.1462 15.90172,6.32971 z M 19.686005,204.54889 c 7.592723,-1.55676 12.506787,-4.95231 10.404921,-7.18964 -0.787768,-0.83854 -1.691309,-0.76785 -2.816836,0.22037 -2.144903,1.88325 -7.143958,3.47488 -12.329292,3.92548 -3.141027,0.27296 -3.857751,0.63693 -3.857751,1.9591 0,1.99709 2.568667,2.3211 8.598958,1.08469 z M 78.13378,185.30365 c -0.504028,-0.59531 -0.504028,-0.59531 0.09128,-0.0913 0.559446,0.47366 0.715762,0.6866 0.504029,0.6866 -0.05021,0 -0.318098,-0.26789 -0.595313,-0.59532 z M 49.137435,175.13489 c 0.190995,-0.0764 0.419201,-0.067 0.507119,0.0209 0.08792,0.0879 -0.06835,0.15045 -0.347265,0.13897 -0.308227,-0.0127 -0.37092,-0.0754 -0.159854,-0.15986 z m 8.466667,0 c 0.190994,-0.0764 0.4192,-0.067 0.507119,0.0209 0.08792,0.0879 -0.06835,0.15045 -0.347266,0.13897 -0.308226,-0.0127 -0.370919,-0.0754 -0.159853,-0.15986 z m -6.763411,-0.26622 c 0.254661,-0.0666 0.67138,-0.0666 0.926041,0 0.254662,0.0665 0.0463,0.121 -0.463021,0.121 -0.509323,0 -0.717682,-0.0545 -0.46302,-0.121 z m 4.497916,0 c 0.254661,-0.0666 0.67138,-0.0666 0.926042,0 0.254661,0.0665 0.0463,0.121 -0.463021,0.121 -0.509323,0 -0.717682,-0.0545 -0.463021,-0.121 z"
           id="path1883" /><path
           style="fill:#646565;fill-opacity:1;stroke:#da2625;stroke-width:2.665;stroke-dasharray:none;stroke-opacity:1"
           d="m 59.613071,283.75335 c -1.923212,-1.55732 1.948526,-14.11113 4.960733,-16.0848 1.866807,-1.22318 3.594695,1.21508 2.129129,3.00446 -1.845361,2.2531 -4.14994,9.07916 -4.14994,12.29194 0,1.08348 -1.93477,1.60233 -2.939922,0.7884 z M 10.490934,271.52274 c -2.9813495,-1.47575 -4.6035707,-5.65251 -3.355518,-8.63952 2.3764768,-5.68771 10.504982,-2.65242 10.473589,3.91098 -0.01968,4.11701 -3.578037,6.48082 -7.118071,4.72854 z m 56.152155,-12.88585 c -5.042633,-2.36799 -3.480085,-10.6834 2.563101,-13.64006 6.359842,-3.11158 11.637681,2.16626 8.526102,8.5261 -2.091997,4.27589 -7.531753,6.78452 -11.089203,5.11396 z M 31.51936,248.52723 c -4.753282,-2.58692 -0.458574,-9.72283 5.88083,-9.77135 6.030158,-0.0461 6.409134,6.56297 0.546555,9.53163 -1.726245,0.87413 -5.034957,0.99753 -6.427385,0.23972 z m -41.592883,-4.78833 c -2.588039,-2.86465 -4.338997,-12.29701 -2.551981,-13.74746 1.509815,-1.22545 2.9449681,-0.33926 2.9524918,1.82313 0.012959,3.72503 0.9937945,7.78839 2.2898564,9.48632 2.1249531,2.78384 -0.3509311,5.02748 -2.6903672,2.43801 z m 21.30766,-5.30849 c -2.6450208,-2.8391 6.536111,-11.53171 12.322884,-11.66719 3.374779,-0.079 3.594441,3.24438 0.237339,3.59086 -3.183982,0.32862 -7.903426,3.83544 -9.245396,6.86986 -0.35261,0.79732 -0.838033,1.52524 -1.078719,1.6176 -0.839401,0.3221 -1.70049,0.16379 -2.236108,-0.41113 z m 74.092225,-0.11809 c -0.473635,-0.60213 -0.54837,-1.06616 -0.54837,-3.40492 0,-3.05693 -0.4909,-6.2976 -1.479642,-9.76781 -0.667787,-2.34376 -0.668944,-2.36534 -0.163216,-3.04271 0.770689,-1.03225 2.370926,-0.97274 2.999091,0.11154 1.824067,3.14853 3.142909,14.94773 1.818767,16.27188 -0.761344,0.76134 -1.95571,0.68496 -2.62663,-0.16798 z M 54.086327,224.03864 c -10.794957,-2.84799 -12.92276,-14.5293 -3.25261,-17.85632 10.653733,-3.66542 22.058923,7.36995 15.425345,14.92518 -2.478034,2.82233 -7.762239,4.09474 -12.172735,2.93114 z M 12.218906,205.19165 c -1.356492,-0.15618 -1.963213,-1.83533 -1.061223,-2.93701 0.393825,-0.48101 0.901155,-0.6036 3.394731,-0.82029 5.185334,-0.4506 10.184389,-2.04223 12.329292,-3.92548 2.311104,-2.02917 4.535514,0.28139 2.470933,2.56663 -2.475957,2.74059 -12.296687,5.67307 -17.133733,5.11615 z m 51.392421,-11.94779 c -9.44894,-1.22169 -17.428508,-6.6354 -20.527351,-13.92669 -0.899914,-2.11742 -0.855497,-1.78606 2.621085,-3.23589 7.620573,-3.178 14.505533,-1.84346 23.624782,3.33057 3.775293,2.14201 9.501994,5.35309 11.787691,8.58799 l 0.654383,0.92614 -0.614828,0.52628 c -3.264606,2.79443 -11.973262,4.5121 -17.545762,3.7916 z"
           id="path1881"
           sodipodi:nodetypes="sssssssssssssscsssssssssssssssssssssssssssssscsssscsc" /></g></g></g><g
     inkscape:groupmode="layer"
     id="layer4"
     inkscape:label="Asteroid 1"
     style="display:none"><path
       style="fill:url(#radialGradient1158);fill-opacity:1;stroke-width:0.0177503"
       d="m 5.999869,8.4132585 c -1.02889,-0.0524 -1.84625,-0.168162 -2.66488,-0.377433 -0.39586,-0.101198 -0.59045,-0.164984 -1.53799,-0.504143 l -0.76917,-0.2753132 0.0167,-0.074112 c 0.0311,-0.1381238 0.17608,-0.2763346 0.35534,-0.338638 0.18733,-0.065104 0.27436,-0.076208 0.52765,-0.067326 l 0.23146,0.00812 V 6.6344718 6.4845327 L 1.902499,6.4697207 C 1.605769,6.4525837 1.355639,6.4185597 1.158799,6.3685557 0.53212895,6.2093636 0.06890895,5.8262451 0.01462897,5.4222322 L 2.8970197e-5,5.313444 0.08492897,5.304134 C 0.55100897,5.252981 1.100799,4.9941095 1.428459,4.6715241 c 0.18419,-0.1813353 0.35525,-0.4584646 0.35525,-0.5755168 0,-0.036735 0.0282,-0.046583 0.8487001,-0.2959191 0.82039,-0.2493172 1.37323,-0.3711545 2.11912,-0.4670189 0.70369,-0.090442 1.38766,-0.1256487 1.96157,-0.1009712 0.68471,0.029444 1.35497,0.1218806 1.95638,0.26981 0.33337,0.081998 0.73835,0.2050708 0.71443,0.2171104 -0.007,0.00352 -0.13505,-0.00519 -0.28457,-0.019359 -0.74636,-0.07071 -1.57575,-0.06653 -2.2232,0.011207 -0.7244,0.086974 -1.62028,0.3320772 -2.64024,0.7223441 -0.51683,0.1977534 -1.28098,0.5177795 -1.24911,0.5231262 0.0179,0.00302 0.19642,-0.00201 0.39682,-0.011182 0.54101,-0.024688 0.66979,-0.022982 0.79632,0.010543 0.33978,0.090029 0.39388,0.3466787 0.10385,0.4926284 -0.10152,0.051087 -0.23193,0.083722 -0.37317,0.093391 -0.0619,0.00423 -0.66072,0.00865 -1.33065,0.0098 -0.6699201,0.00116 -1.2321701,0.00649 -1.2494401,0.011856 -0.0347,0.010779 0.12342,0.1013279 0.9569101,0.5480809 0.55219,0.2959754 0.98881,0.5121385 1.43637,0.7111285 1.27792,0.5681631 2.40221,0.9222749 3.27272,1.0307899 0.48332,0.06025 0.65395,0.06935 1.3055,0.06964 0.55364,2.38e-4 0.66151,-0.0031 0.93833,-0.02943 0.51095,-0.04852 0.46811,-0.0464 0.42645,-0.02113 -0.0564,0.03422 -0.52738,0.186987 -0.77412,0.251117 -0.46482,0.120808 -1.03386,0.214957 -1.60407,0.265394 -0.22888,0.02024 -1.06039,0.03593 -1.28864,0.02431 z m 1.4638,-0.945345 C 7.173439,7.4529835 6.844839,7.4176925 6.637929,7.3792415 5.814669,7.2262436 4.695899,6.8440776 3.497639,6.3065338 3.075329,6.1170808 2.568069,5.8687869 2.585399,5.8600086 c 0.007,-0.00377 0.32279,-7.548e-4 0.70071,0.00673 0.75632,0.014976 0.85885,0.0096 1.1436,-0.059942 0.39389,-0.096198 0.69201,-0.3289723 0.72366,-0.5650421 0.0261,-0.1945132 -0.0919,-0.3503684 -0.36906,-0.4876566 l -0.17036,-0.084379 0.2926,-0.099485 c 0.56468,-0.1919921 1.12324,-0.347271 1.5187,-0.4221989 0.74733,-0.1415973 1.74918,-0.1370753 2.63395,0.011891 0.47506,0.079983 1.084929,0.2530395 1.373349,0.3897017 l 0.12137,0.057508 -0.13525,-0.00779 c -0.21531,-0.012404 -0.779329,-0.0088 -0.965549,0.00617 -0.47117,0.037878 -1.14003,0.1888555 -1.79121,0.4043224 -0.52474,0.1736289 -0.9118,0.3255972 -1.70141,0.6680116 -0.0265,0.011499 -0.0482,0.026505 -0.0482,0.033348 0,0.024748 0.89651,0.4106742 1.3361,0.5751569 0.82201,0.3075759 1.54496,0.504808 2.179,0.5944615 0.19587,0.027696 0.2911,0.032754 0.719919,0.038231 0.2718,0.00347 0.49354,0.0099 0.49275,0.014287 -0.003,0.016331 -0.33402,0.1487382 -0.53188,0.2127196 -0.545359,0.1763477 -1.159269,0.2821367 -1.840189,0.3170988 -0.24488,0.01257 -0.61051,0.01474 -0.80432,0.0048 z m 2.21218,-1.0246936 c -0.51396,-0.033464 -1.2917,-0.2404562 -2.2322,-0.5940897 -0.27496,-0.1033861 -0.32763,-0.128269 -0.30305,-0.1431724 0.0484,-0.029373 0.54824,-0.211655 0.87906,-0.3206058 0.3692,-0.1215922 0.90387,-0.2599447 1.19557,-0.3093723 0.19522,-0.033082 0.24248,-0.036041 0.57551,-0.036041 0.436379,0 0.598039,0.018181 0.968039,0.1088758 0.421929,0.1034238 0.695439,0.2495346 0.823399,0.439869 0.19425,0.2889238 -0.0984,0.5933343 -0.717859,0.7468172 -0.37516,0.092947 -0.81,0.1323593 -1.188469,0.1077175 z"
       id="path365"
       inkscape:transform-center-x="-0.22428226"
       inkscape:transform-center-y="0.042266244" /></g><g
     inkscape:groupmode="layer"
     id="layer2"
     inkscape:label="EnemySpaceship"
     transform="translate(-37.794331,-228.5312)"
     style="display:inline"><g
       id="g1740"
       transform="matrix(0.15261995,0,0,0.15261995,32.006712,195.56575)"><path
         style="fill:#4d9a48;fill-opacity:1;stroke:none;stroke-width:0.149139;stroke-opacity:1"
         d="m 62.244819,277.57372 c -0.746101,-0.18952 -1.907561,-1.18914 -2.326991,-2.00275 -0.154692,-0.30008 -0.32517,-0.8202 -0.378841,-1.15584 l -0.09758,-0.61024 h 3.877426 3.877423 l -0.129903,0.69534 c -0.349457,1.87055 -1.926873,3.20484 -3.7417,3.16498 -0.433274,-0.01 -0.919198,-0.0507 -1.079833,-0.0915 z m 12.372334,-0.1697 c -1.276269,-0.5818 -2.040901,-1.55767 -2.297759,-2.93256 l -0.124528,-0.66657 h 3.858364 c 3.09417,0 3.858362,0.0389 3.858362,0.19664 0,0.10816 -0.104457,0.54838 -0.232126,0.97829 -0.617578,2.07961 -3.153869,3.29417 -5.062313,2.4242 z m 12.623838,-0.0575 c -1.273241,-0.69861 -2.057028,-1.7455 -2.220761,-2.96622 l -0.07718,-0.57542 2.815997,10e-4 c 1.548798,5.3e-4 3.275929,0.0445 3.838067,0.0976 l 1.022074,0.0965 -0.09422,0.58922 c -0.124178,0.77657 -0.424006,1.33369 -1.060062,1.96975 -0.75964,0.75964 -1.355887,1.01488 -2.530395,1.0832 -0.890229,0.0518 -1.139632,0.008 -1.69352,-0.29567 z M 59.480409,246.62417 c 0.0034,-1.90239 0.84278,-5.11916 1.837264,-7.04138 5.15975,-9.97324 18.509311,-12.08298 26.417333,-4.17495 2.779684,2.77968 4.553865,6.61479 4.809383,10.39606 l 0.08818,1.30497 H 76.05605 59.479529 l 8.98e-4,-0.4847 z"
         id="path570"
         sodipodi:nodetypes="ssscccscsssscsssssscsscsssssssssccccs" /><path
         style="display:inline;fill:#240655;fill-opacity:1;stroke-width:0.149139"
         d="m 90.612327,273.84441 -0.708411,-0.0559 v -1.45722 c 0,-1.33039 -0.03004,-1.48545 -0.345175,-1.7815 -0.439309,-0.41271 -1.1946,-0.42503 -1.593634,-0.026 -0.258508,0.2585 -0.298279,0.49713 -0.298279,1.78966 v 1.4914 h -5.205894 -5.205896 l -0.05126,-1.47609 c -0.06043,-1.74003 -0.262448,-2.10325 -1.169804,-2.10325 -0.907357,0 -1.109378,0.36322 -1.169805,2.10325 l -0.05126,1.47609 h -5.205896 -5.205894 v -1.4914 c 0,-1.29253 -0.03977,-1.53116 -0.298279,-1.78966 -0.415413,-0.41542 -1.20167,-0.39258 -1.614534,0.0469 -0.286861,0.30535 -0.324274,0.51184 -0.324274,1.78967 v 1.4445 H 59.80092 c -2.099939,0 -2.3906,-0.0304 -2.609935,-0.27274 -0.206841,-0.22856 -0.246824,-0.63926 -0.246824,-2.53537 v -2.26263 H 74.22089 c 9.5022,0 18.092615,0.0439 19.089811,0.0975 l 1.813085,0.0975 -0.0023,2.17688 c -0.0012,1.19729 -0.05159,2.25073 -0.111855,2.34099 -0.320835,0.48049 -1.729283,0.60778 -4.397321,0.3974 z m -34.91099,-22.95723 c -0.180192,-0.18019 -0.103526,-1.98849 0.105062,-2.47802 0.112468,-0.26395 0.386316,-0.64769 0.608553,-0.85276 l 0.404064,-0.37285 19.094779,-0.0389 c 18.953636,-0.0387 19.098395,-0.0367 19.583925,0.26334 0.703642,0.43488 0.968318,1.10328 0.968318,2.44538 v 1.13329 H 76.133401 c -11.182952,0 -20.37738,-0.0448 -20.432064,-0.0994 z"
         id="path568" /><path
         style="display:inline;fill:#ea001e;fill-opacity:1;stroke-width:0.149139"
         d="m 62.164034,272.40819 c 0,-1.1872 0.04637,-1.45567 0.309102,-1.78968 0.40405,-0.51366 1.145289,-0.53575 1.60371,-0.0478 0.286862,0.30535 0.324275,0.51184 0.324275,1.78967 v 1.4445 h -1.118544 -1.118543 z m 12.676827,0.1988 c 0,-1.90849 0.467379,-2.59592 1.57579,-2.31773 0.549886,0.13801 0.810437,0.88315 0.810437,2.31773 v 1.1979 h -1.193113 -1.193114 z m 12.825967,-0.26749 c 0,-1.33893 0.02979,-1.49338 0.345175,-1.78967 0.488425,-0.45885 1.191861,-0.42832 1.58281,0.0687 0.262734,0.33401 0.309103,0.60248 0.309103,1.78968 v 1.3967 h -1.118544 -1.118544 z m -18.245443,-8.67607 -30.996842,-0.0746 -0.287626,-0.35521 c -0.349538,-0.43167 -0.28212,-1.22258 0.267999,-3.14401 1.317324,-4.60109 5.342948,-8.1816 10.059109,-8.94686 0.627153,-0.10176 10.045656,-0.15343 27.793658,-0.15246 29.302447,0.002 27.595787,-0.0481 29.980617,0.87397 3.90549,1.51011 6.96538,5.20476 7.76297,9.37338 0.26559,1.3881 0.2657,1.69916 5.3e-4,2.06169 -0.20253,0.27713 -0.49735,0.29269 -6.89769,0.36407 -3.67736,0.041 -20.634695,0.041 -37.682957,0 z M 51.16039,259.77925 c 1.154319,-0.32059 1.906155,-1.29149 1.906155,-2.46158 0,-1.40434 -0.950455,-2.43799 -2.352608,-2.55852 -1.926894,-0.16565 -3.297231,1.93981 -2.39231,3.67568 0.472868,0.90708 0.976516,1.24535 2.209553,1.48402 0.04101,0.008 0.324157,-0.0549 0.62921,-0.1396 z M 64.15,259.71887 c 0.743177,-0.26504 1.126301,-0.61878 1.462022,-1.34988 0.347819,-0.75744 0.346501,-1.3316 -0.0048,-2.10526 -0.596697,-1.31397 -2.022318,-1.86125 -3.33538,-1.28043 -2.492848,1.10271 -1.673961,4.82228 1.085336,4.92984 0.123039,0.005 0.479823,-0.0826 0.792853,-0.19427 z m 12.513185,0.0604 c 0.710942,-0.19745 1.443363,-0.81505 1.702725,-1.43579 1.03635,-2.48033 -1.929387,-4.74019 -3.923301,-2.98951 -1.554145,1.36456 -1.133381,3.67616 0.794245,4.36346 0.70421,0.25109 0.739423,0.25261 1.426331,0.0618 z m 13.494206,-0.31176 c 1.352588,-0.83128 1.57024,-2.80938 0.434129,-3.9455 -1.260434,-1.26043 -3.260161,-0.92519 -4.090114,0.68568 -1.164658,2.26052 1.465772,4.60591 3.655985,3.25982 z m 12.596909,0.082 c 0.93269,-0.48232 1.46639,-1.68413 1.253,-2.82158 -0.12865,-0.68576 -0.98802,-1.64512 -1.67749,-1.87267 -1.6155,-0.53316 -3.328406,0.73295 -3.328406,2.46021 0,1.93586 2.012656,3.13395 3.752896,2.23404 z"
         id="path566" /><path
         style="display:inline;fill:#55535a;stroke-width:0.149139"
         d="m 74.244305,268.74618 -18.567825,-0.0866 -0.842332,-0.39491 c -1.540972,-0.72247 -2.745674,-2.34924 -2.926275,-3.95153 l -0.07323,-0.64972 H 76.163718 100.4928 v 0.51639 c 0,1.58864 -1.515102,3.61043 -3.169471,4.2294 -1.164295,0.43562 -1.347438,0.43829 -23.079024,0.33696 z"
         id="path564" /></g></g></svg>
