<?xml version="1.0" encoding="UTF-8" standalone="no"?>
<!-- Created with Inkscape (http://www.inkscape.org/) -->

<svg
   width="11.641666mm"
   height="11.658809mm"
   viewBox="0 0 11.641666 11.658809"
   version="1.1"
   id="svg5"
   xml:space="preserve"
   inkscape:version="1.2.2 (b0a8486541, 2022-12-01)"
   sodipodi:docname="icon_minewxeeper.svg"
   xmlns:inkscape="http://www.inkscape.org/namespaces/inkscape"
   xmlns:sodipodi="http://sodipodi.sourceforge.net/DTD/sodipodi-0.dtd"
   xmlns:xlink="http://www.w3.org/1999/xlink"
   xmlns="http://www.w3.org/2000/svg"
   xmlns:svg="http://www.w3.org/2000/svg"><sodipodi:namedview
     id="namedview7"
     pagecolor="#ffffff"
     bordercolor="#000000"
     borderopacity="0.25"
     inkscape:showpageshadow="2"
     inkscape:pageopacity="0.0"
     inkscape:pagecheckerboard="0"
     inkscape:deskcolor="#d1d1d1"
     inkscape:document-units="mm"
     showgrid="false"
     inkscape:zoom="7.3358423"
     inkscape:cx="16.085406"
     inkscape:cy="23.719158"
     inkscape:window-width="1920"
     inkscape:window-height="1011"
     inkscape:window-x="0"
     inkscape:window-y="0"
     inkscape:window-maximized="1"
     inkscape:current-layer="layer7" /><defs
     id="defs2"><linearGradient
       inkscape:collect="always"
       id="linearGradient2421"><stop
         style="stop-color:#06e604;stop-opacity:1;"
         offset="0.03260243"
         id="stop2425" /><stop
         style="stop-color:#f76105;stop-opacity:1;"
         offset="0.22018495"
         id="stop2575" /><stop
         style="stop-color:#fd0407;stop-opacity:1;"
         offset="0.43136659"
         id="stop2419" /><stop
         style="stop-color:#b204a8;stop-opacity:1;"
         offset="0.79040956"
         id="stop2427" /></linearGradient><linearGradient
       inkscape:collect="always"
       xlink:href="#linearGradient2421"
       id="linearGradient2423"
       x1="-21.488331"
       y1="35.846464"
       x2="82.65414"
       y2="35.846464"
       gradientUnits="userSpaceOnUse"
       gradientTransform="translate(0,0.20872529)" /><linearGradient
       inkscape:collect="always"
       xlink:href="#linearGradient2421"
       id="linearGradient2753"
       gradientUnits="userSpaceOnUse"
       gradientTransform="translate(0,0.20872529)"
       x1="-21.488331"
       y1="35.846464"
       x2="82.65414"
       y2="35.846464" /><linearGradient
       inkscape:collect="always"
       xlink:href="#linearGradient2421"
       id="linearGradient2834"
       gradientUnits="userSpaceOnUse"
       gradientTransform="translate(0,0.20872529)"
       x1="-21.488331"
       y1="35.846464"
       x2="82.65414"
       y2="35.846464" /><linearGradient
       inkscape:collect="always"
       xlink:href="#linearGradient2421"
       id="linearGradient2915"
       gradientUnits="userSpaceOnUse"
       gradientTransform="translate(0,0.20872529)"
       x1="-21.488331"
       y1="35.846464"
       x2="82.65414"
       y2="35.846464" /><linearGradient
       inkscape:collect="always"
       xlink:href="#linearGradient2421"
       id="linearGradient2996"
       gradientUnits="userSpaceOnUse"
       gradientTransform="translate(0,0.20872529)"
       x1="-21.488331"
       y1="35.846464"
       x2="82.65414"
       y2="35.846464" /><linearGradient
       inkscape:collect="always"
       xlink:href="#linearGradient2421"
       id="linearGradient3077"
       gradientUnits="userSpaceOnUse"
       gradientTransform="translate(0,0.20872529)"
       x1="-21.488331"
       y1="35.846464"
       x2="82.65414"
       y2="35.846464" /><linearGradient
       inkscape:collect="always"
       xlink:href="#linearGradient2421"
       id="linearGradient3158"
       gradientUnits="userSpaceOnUse"
       gradientTransform="translate(0,0.20872529)"
       x1="-21.488331"
       y1="35.846464"
       x2="82.65414"
       y2="35.846464" /><linearGradient
       inkscape:collect="always"
       xlink:href="#linearGradient2421"
       id="linearGradient3247"
       gradientUnits="userSpaceOnUse"
       gradientTransform="translate(0,0.20872529)"
       x1="-21.488331"
       y1="35.846464"
       x2="82.65414"
       y2="35.846464" /><clipPath
       clipPathUnits="userSpaceOnUse"
       id="clipPath3612"><text
         xml:space="preserve"
         style="font-style:normal;font-variant:normal;font-weight:bold;font-stretch:normal;font-size:13.76px;font-family:sans-serif;-inkscape-font-specification:'sans-serif, Bold';font-variant-ligatures:normal;font-variant-caps:normal;font-variant-numeric:normal;font-variant-east-asian:normal;fill:#0602e8;fill-opacity:1;stroke-width:0.521758"
         x="51.897377"
         y="41.064018"
         id="text3616"><tspan
           sodipodi:role="line"
           id="tspan3614"
           style="stroke-width:0.521758"
           x="51.897377"
           y="41.064018">8</tspan></text></clipPath><clipPath
       clipPathUnits="userSpaceOnUse"
       id="clipPath3755"><text
         xml:space="preserve"
         style="font-style:normal;font-variant:normal;font-weight:bold;font-stretch:normal;font-size:13.76px;font-family:sans-serif;-inkscape-font-specification:'sans-serif, Bold';font-variant-ligatures:normal;font-variant-caps:normal;font-variant-numeric:normal;font-variant-east-asian:normal;fill:#0602e8;fill-opacity:1;stroke-width:0.521758"
         x="41.223804"
         y="41.070736"
         id="text3759"><tspan
           sodipodi:role="line"
           id="tspan3757"
           style="stroke-width:0.521758"
           x="41.223804"
           y="41.070736">7</tspan></text></clipPath><clipPath
       clipPathUnits="userSpaceOnUse"
       id="clipPath3794"><text
         xml:space="preserve"
         style="font-style:normal;font-variant:normal;font-weight:bold;font-stretch:normal;font-size:13.76px;font-family:sans-serif;-inkscape-font-specification:'sans-serif, Bold';font-variant-ligatures:normal;font-variant-caps:normal;font-variant-numeric:normal;font-variant-east-asian:normal;fill:#0602e8;fill-opacity:1;stroke-width:0.521758"
         x="30.177454"
         y="41.057297"
         id="text3798"><tspan
           sodipodi:role="line"
           id="tspan3796"
           style="stroke-width:0.521758"
           x="30.177454"
           y="41.057297">6</tspan></text></clipPath><clipPath
       clipPathUnits="userSpaceOnUse"
       id="clipPath3829"><text
         xml:space="preserve"
         style="font-style:normal;font-variant:normal;font-weight:bold;font-stretch:normal;font-size:13.76px;font-family:sans-serif;-inkscape-font-specification:'sans-serif, Bold';font-variant-ligatures:normal;font-variant-caps:normal;font-variant-numeric:normal;font-variant-east-asian:normal;fill:#0602e8;fill-opacity:1;stroke-width:0.521758"
         x="20.389357"
         y="40.973312"
         id="text3833"><tspan
           sodipodi:role="line"
           id="tspan3831"
           style="stroke-width:0.521758"
           x="20.389357"
           y="40.973312">5</tspan></text></clipPath><clipPath
       clipPathUnits="userSpaceOnUse"
       id="clipPath3868"><text
         xml:space="preserve"
         style="font-style:normal;font-variant:normal;font-weight:bold;font-stretch:normal;font-size:13.76px;font-family:sans-serif;-inkscape-font-specification:'sans-serif, Bold';font-variant-ligatures:normal;font-variant-caps:normal;font-variant-numeric:normal;font-variant-east-asian:normal;fill:#0602e8;fill-opacity:1;stroke-width:0.521758"
         x="10.689586"
         y="41.070736"
         id="text3872"><tspan
           sodipodi:role="line"
           id="tspan3870"
           style="stroke-width:0.521758"
           x="10.689586"
           y="41.070736">4</tspan></text></clipPath><clipPath
       clipPathUnits="userSpaceOnUse"
       id="clipPath3918"><text
         xml:space="preserve"
         style="font-style:normal;font-variant:normal;font-weight:bold;font-stretch:normal;font-size:13.76px;font-family:sans-serif;-inkscape-font-specification:'sans-serif, Bold';font-variant-ligatures:normal;font-variant-caps:normal;font-variant-numeric:normal;font-variant-east-asian:normal;fill:#0602e8;fill-opacity:1;stroke-width:0.521758"
         x="1.2448562"
         y="41.064018"
         id="text3922"><tspan
           sodipodi:role="line"
           id="tspan3920"
           style="stroke-width:0.521758"
           x="1.2448562"
           y="41.064018">3</tspan></text></clipPath><clipPath
       clipPathUnits="userSpaceOnUse"
       id="clipPath4013"><text
         xml:space="preserve"
         style="font-style:normal;font-variant:normal;font-weight:bold;font-stretch:normal;font-size:13.76px;font-family:sans-serif;-inkscape-font-specification:'sans-serif, Bold';font-variant-ligatures:normal;font-variant-caps:normal;font-variant-numeric:normal;font-variant-east-asian:normal;fill:#0602e8;fill-opacity:1;stroke-width:0.521758"
         x="-19.302809"
         y="41.070736"
         id="text4017"><tspan
           sodipodi:role="line"
           id="tspan4015"
           style="font-style:normal;font-variant:normal;font-weight:bold;font-stretch:normal;font-size:13.76px;font-family:sans-serif;-inkscape-font-specification:'sans-serif, Bold';font-variant-ligatures:normal;font-variant-caps:normal;font-variant-numeric:normal;font-variant-east-asian:normal;fill:#0602e8;fill-opacity:1;stroke-width:0.521758"
           x="-19.302809"
           y="41.070736">1</tspan></text></clipPath><clipPath
       clipPathUnits="userSpaceOnUse"
       id="clipPath4021"><text
         xml:space="preserve"
         style="font-style:normal;font-variant:normal;font-weight:bold;font-stretch:normal;font-size:13.76px;font-family:sans-serif;-inkscape-font-specification:'sans-serif, Bold';font-variant-ligatures:normal;font-variant-caps:normal;font-variant-numeric:normal;font-variant-east-asian:normal;fill:#0602e8;fill-opacity:1;stroke-width:0.521758"
         x="-9.5305853"
         y="41.161438"
         id="text4025"><tspan
           sodipodi:role="line"
           id="tspan4023"
           style="stroke-width:0.521758"
           x="-9.5305853"
           y="41.161438">2</tspan></text></clipPath></defs><g
     inkscape:label="Hidden"
     inkscape:groupmode="layer"
     id="layer1"
     transform="translate(-98.901711,-142.36525)"><path
       style="fill:#000000;stroke-width:0.0216187"
       d="m 104.44389,153.70134 c -0.3788,-0.11032 -0.67054,-0.4061 -0.77053,-0.78117 -0.0374,-0.1415 -0.0364,-0.40267 0.002,-0.54842 0.10003,-0.37575 0.39845,-0.67188 0.77935,-0.77339 0.12848,-0.0338 0.39361,-0.0369 0.52964,-0.006 0.36833,0.0847 0.69016,0.40469 0.79221,0.78727 0.0339,0.12911 0.0376,0.39845 0.007,0.51885 -0.0904,0.34814 -0.34105,0.63608 -0.6696,0.76882 -0.14706,0.0601 -0.51774,0.0777 -0.66975,0.0334 z m 0.3997,-0.65031 c 0.14064,-0.0422 0.24249,-0.14541 0.28375,-0.28729 0.029,-0.10216 0.029,-0.12548 0,-0.22762 -0.0881,-0.30309 -0.4522,-0.40595 -0.68678,-0.19408 -0.0601,0.0541 -0.0935,0.10905 -0.11723,0.19167 -0.0297,0.10469 -0.0298,0.1275 -7.6e-4,0.23003 0.0401,0.13845 0.14244,0.24474 0.27513,0.28612 0.1221,0.0378 0.12327,0.0378 0.24586,9.8e-4 z m -0.45372,-2.03439 c -0.40105,-0.10983 -0.75891,-0.44342 -0.89695,-0.83623 -0.0797,-0.22789 -0.0896,-0.38561 -0.0818,-1.38137 l 0.007,-0.95934 0.0593,-0.17298 c 0.1762,-0.52083 0.59917,-0.8438 1.17671,-0.89854 0.2969,-0.0273 0.44078,-0.0834 0.58003,-0.2236 0.16957,-0.17041 0.21535,-0.2835 0.21535,-0.53173 0,-0.24614 -0.0461,-0.36128 -0.20978,-0.52561 -0.292,-0.293 -0.75628,-0.29242 -1.05,9.9e-4 -0.12198,0.1219 -0.19388,0.28204 -0.22033,0.49069 -0.0286,0.23143 -0.0572,0.32315 -0.14793,0.49834 -0.15757,0.3021 -0.48461,0.56087 -0.81735,0.6467 -0.16373,0.0422 -0.49768,0.0443 -0.64898,0.004 -0.48198,-0.12835 -0.84601,-0.50963 -0.95171,-0.99675 -0.0615,-0.2793 -0.009,-0.76736 0.12587,-1.17824 0.12309,-0.37646 0.39261,-0.84209 0.67416,-1.16466 0.49236,-0.56399 1.2005,-0.95583 1.96314,-1.08622 0.22954,-0.039 0.32272,-0.044 0.65663,-0.0334 0.53419,0.0171 0.8827,0.099 1.34038,0.31796 0.95486,0.45692 1.62567,1.31857 1.8511,2.37759 0.0653,0.30908 0.0703,0.92097 0.0115,1.2431 -0.19288,1.03129 -0.85092,1.91526 -1.78103,2.39249 l -0.22158,0.11366 v 0.39195 c 0,0.31655 -0.009,0.42329 -0.0417,0.55518 -0.12261,0.47938 -0.47376,0.83438 -0.94503,0.95531 -0.16187,0.0414 -0.49484,0.0418 -0.64548,6.7e-4 z m 0.58482,-0.67926 c 0.1344,-0.0586 0.24804,-0.17086 0.31576,-0.31397 l 0.0622,-0.12992 5e-4,-0.52966 c 6.1e-4,-0.68075 0.0176,-0.72346 0.31298,-0.83167 0.62938,-0.22974 1.20816,-0.76952 1.50202,-1.40073 0.47428,-1.01859 0.23217,-2.27673 -0.58806,-3.05582 -1.07579,-1.02196 -2.72166,-1.00235 -3.76824,0.0449 -0.46189,0.4622 -0.7669,1.13542 -0.7669,1.69307 0,0.21689 0.0434,0.34374 0.16353,0.47727 0.24284,0.27012 0.64645,0.27914 0.91078,0.0204 0.11447,-0.11203 0.1696,-0.24005 0.20041,-0.46525 0.0481,-0.35034 0.16158,-0.58025 0.41012,-0.82963 0.26851,-0.26941 0.60493,-0.40902 0.98428,-0.40837 0.40305,6.9e-4 0.69651,0.12255 0.98686,0.41001 0.15025,0.14866 0.20352,0.2197 0.27608,0.36794 0.20265,0.41415 0.20205,0.86014 -0.002,1.26456 -0.22828,0.45326 -0.63314,0.71744 -1.1786,0.76902 -0.35657,0.0332 -0.55292,0.14807 -0.66292,0.38582 -0.0447,0.0969 -0.046,0.12544 -0.046,1.10449 v 1.00536 l 0.0513,0.0976 c 0.17071,0.32603 0.51946,0.46158 0.83651,0.32498 z"
       id="path1382" /></g><g
     inkscape:groupmode="layer"
     id="layer2"
     inkscape:label="IsAMine"><path
       style="fill:#000000;stroke-width:0.0216494"
       d="m 4.4025787,10.457798 c -1.90229,-0.12091 -3.51186997,-1.4530896 -3.98643797,-3.2994896 -0.342957,-1.33439 -0.04122,-2.77117 0.80901797,-3.85111 0.15237,-0.19344 0.51001,-0.55079 0.71117,-0.7103 1.25139,-0.99288 2.93004,-1.23204 4.42242,-0.63036 l 0.24591,0.0991 0.44136,-0.44095 c 0.49886,-0.49835 0.43749,-0.46657 0.74459,-0.38521 0.2134,0.0573 0.51201,0.20274 0.72161,0.35314 0.093,0.0667 0.17808,0.12089 0.1897,0.12089 0.0121,0 0.068,-0.0233 0.12722,-0.0543 0.1476,-0.0742 0.36723,-0.15558 0.57312,-0.21061 0.24498,-0.0659 0.6817603,-0.066 0.9429403,-9.2e-4 0.29967,0.0738 0.72062,0.269 0.88934,0.41089 0.16295,0.13714 0.17405,0.39479 0.0236,0.55538 -0.1356,0.14504 -0.30006,0.15856 -0.51637,0.0423 -0.43002,-0.23082 -0.58592,-0.27507 -0.9252403,-0.26246 -0.18838,0.008 -0.27455,0.022 -0.39934,0.0659 -0.0875,0.0307 -0.16339,0.0618 -0.16852,0.0663 -0.005,0.005 0.0336,0.0962 0.0871,0.20161 0.10221,0.20378 0.16764,0.39202 0.20888,0.60132 l 0.0244,0.12752 -0.44674,0.44715 -0.44674,0.44712 0.0583,0.12894 c 0.27626,0.6179 0.41184,1.39799 0.36031,2.0737 -0.0695,0.91824 -0.38337,1.72843 -0.94757,2.44987 -0.15391,0.19687 -0.56307,0.6023 -0.75696,0.7502199 -0.85192,0.6497897 -1.91709,0.9721397 -2.98753,0.9040797 z m -2.6787,-4.4912396 c 0.0838,-0.0347 0.16904,-0.10446 0.20113,-0.16411 0.0109,-0.02 0.0395,-0.13084 0.0658,-0.24773 0.11385,-0.52548 0.32862,-0.93077 0.6859,-1.29472 0.41307,-0.42068 0.91676,-0.71353 1.56679,-0.91087 0.12895,-0.0389 0.25892,-0.0871 0.28883,-0.10678 0.0912,-0.0604 0.1478,-0.19754 0.13664,-0.33196 -0.0112,-0.12949 -0.0572,-0.20592 -0.17028,-0.28419 -0.0649,-0.0448 -0.092,-0.0498 -0.22531,-0.04 -0.31419,0.0221 -1.06454,0.33146 -1.483,0.61198 -0.77397,0.51884 -1.27191,1.18743 -1.48338,1.99172 -0.10824,0.41161 -0.0978,0.57105 0.0474,0.70491 0.11067,0.10236 0.23849,0.12714 0.37042,0.0712 z m 3.89093,-2.84421 c 0.13594,-0.0757 0.2103,-0.26176 0.16523,-0.41207 -0.0512,-0.16996 -0.17671,-0.26567 -0.34915,-0.26567 -0.36034,0 -0.50308,0.44376 -0.21251,0.66075 0.10948,0.0814 0.26889,0.0886 0.39643,0.0179 z"
       id="path1380" /></g><g
     inkscape:groupmode="layer"
     id="layer3"
     inkscape:label="Exploded"
     style="display:inline"><path
       style="fill:#000000;stroke-width:0.022818"
       d="m 4.544779,11.635239 c -0.007,-0.0305 -0.0604,-0.6881 -0.11826,-1.45992 -0.0593,-0.7718401 -0.10956,-1.4065501 -0.11323,-1.4105101 -0.004,-0.004 -0.70694,0.43056 -1.5629,0.9655499 -0.85603,0.5349802 -1.56079,0.9682002 -1.56633,0.9626502 -0.006,-0.006 0.43807,-0.7153102 0.98596,-1.5772701 0.54779,-0.86198 0.98962,-1.57355 0.98181,-1.58137 -0.008,-0.008 -0.65554,-0.0572 -1.43931,-0.10832 -0.78399297,-0.0522 -1.42974897,-0.0989 -1.43511497,-0.10436 -0.006,-0.006 0.567686,-0.34652 1.27338497,-0.75775 0.70588,-0.41127 1.30036,-0.76035 1.32117,-0.77582 0.0324,-0.024 -0.10724,-0.15823 -1.08108,-1.0321 -0.61543,-0.55219 -1.14638997,-1.02663 -1.17984597,-1.05434 -0.03334,-0.0269 -0.05554,-0.0562 -0.04918,-0.0629 0.007,-0.007 0.77053597,0.10571 1.69799597,0.24922 0.92745,0.1434 1.6897,0.25743 1.69375,0.25336 0.004,-0.004 -0.0641,-0.65825 -0.1502,-1.45376 -0.0866,-0.79551 -0.15455,-1.44991 -0.15082,-1.45411 0.004,-0.004 0.43022,0.45495 0.94788,1.02025 l 0.94103,1.02792 0.71725,-1.52224 c 0.39448,-0.83732995 0.74205,-1.57769995 0.77246,-1.64560995 0.0297,-0.0676 0.0604,-0.11887 0.0652,-0.1134100007 0.006,0.006000001 0.0675,0.7489400007 0.13963,1.6520499507 0.0706,0.90335 0.13312,1.64615 0.13713,1.65079 0.004,0.005 0.69754,-0.40344 1.54128,-0.9067 0.84376,-0.50334 1.53797,-0.91125 1.54275,-0.90646 0.005,0.005 -0.42466,0.70348 -0.95429,1.5527 -0.52959,0.84923 -0.9538,1.55181 -0.94263,1.56139 0.0117,0.01 0.60037,0.0662 1.30947,0.12594 0.70909,0.0605 1.33539,0.1158 1.3919,0.1246 l 0.10267,0.0168 -1.37625,0.78418 c -1.10635,0.63045 -1.37033,0.78973 -1.34627,0.81222 0.0173,0.0162 0.54852,0.47709 1.18232,1.02614 0.63373,0.54897 1.15595,1.00783 1.16041,1.01971 0.005,0.0131 -0.0237,0.0164 -0.0679,0.008 -0.14581,-0.026 -3.17989,-0.46397 -3.18508,-0.45885 -0.003,0.003 0.0926,0.72245 0.21159,1.5991399 0.11933,0.8767902 0.21399,1.6030002 0.21036,1.6138502 -0.004,0.0114 -0.47692,-0.52481 -1.05178,-1.19046 -0.57488,-0.6656601 -1.05221,-1.2100201 -1.06074,-1.2096401 -0.009,3.5e-4 -0.28252,0.5146 -0.6088,1.1427301 -0.89614,1.72512 -0.87304,1.68309 -0.8867,1.61717 z m 1.00366,-3.9293001 c 0.15215,-0.29111 0.28566,-0.53155 0.29664,-0.53426 0.0115,-0.003 0.22449,0.233 0.47444,0.52381 0.39721,0.46223 0.45288,0.51879 0.44163,0.44902 -0.0446,-0.2765 -0.16222,-1.20915 -0.15359,-1.21713 0.006,-0.006 0.28258,0.0292 0.61514,0.0777 0.33257,0.0485 0.61812,0.0882 0.6346,0.0886 0.0239,5.5e-4 -0.33858,-0.3265 -0.81379,-0.73284 l -0.0976,-0.083 0.62178,-0.35509 c 0.342,-0.1953 0.60698,-0.3599 0.58893,-0.36584 -0.0189,-0.006 -0.31266,-0.0335 -0.65467,-0.0632 -0.342,-0.0276 -0.62164,-0.058 -0.62148,-0.0643 1.7e-4,-0.007 0.14815,-0.24885 0.32893,-0.53753 0.18077,-0.28865 0.32507,-0.52837 0.3207,-0.53274 -0.005,-0.005 -0.22324,0.12139 -0.48645,0.2795 -0.26317,0.1581 -0.48802,0.28748 -0.49961,0.28748 -0.0122,0 -0.0391,-0.24901 -0.0624,-0.55337 -0.0222,-0.30428 -0.0473,-0.58039 -0.0558,-0.61345 -0.0129,-0.0507 -0.0631,0.0422 -0.30959,0.57045 -0.1622,0.34682 -0.30128,0.63819 -0.30901,0.64748 -0.008,0.01 -0.2111,-0.19887 -0.45187,-0.4626 -0.33568,-0.36749 -0.43541,-0.46468 -0.42734,-0.41617 0.0269,0.16619 0.12707,1.17584 0.11673,1.18626 -0.007,0.007 -0.32088,-0.0359 -0.69863,-0.0954 -0.37776,-0.0595 -0.69644,-0.10365 -0.7083,-0.0997 -0.0125,0.004 0.18374,0.19061 0.43465,0.41472 0.25091,0.22412 0.45619,0.41552 0.45619,0.42536 0,0.0103 -0.23583,0.1545 -0.52413,0.32152 -0.28816,0.16703 -0.52006,0.30771 -0.51518,0.31261 0.009,0.009 1.18887,0.0948 1.3074,0.096 0.0275,2.6e-4 0.0517,0.0105 0.0517,0.022 0,0.0122 -0.12636,0.21952 -0.28085,0.46207 -0.15448,0.24257 -0.2895,0.4554 -0.30017,0.47303 -0.0229,0.0386 -0.0602,0.0604 0.44177,-0.25476 0.21825,-0.13699 0.40919,-0.25373 0.42412,-0.25948 0.0207,-0.008 0.0382,0.14156 0.0691,0.56105 0.0229,0.31424 0.0483,0.57138 0.0556,0.57123 0.007,-1.8e-4 0.13714,-0.23847 0.28927,-0.5296 z"
       id="path1384" /></g><g
     inkscape:groupmode="layer"
     id="layer4"
     inkscape:label="1"
     style="display:none"><rect
       style="opacity:1;fill:url(#linearGradient2423);fill-opacity:1;stroke-width:0.521758"
       id="rect1768"
       width="104.14247"
       height="14.831725"
       x="-21.488331"
       y="28.639326"
       clip-path="url(#clipPath4013)"
       transform="translate(20.414266,-30.304573)" /></g><g
     inkscape:groupmode="layer"
     id="layer5"
     inkscape:label="2"
     style="display:inline"><rect
       style="fill:url(#linearGradient2753);fill-opacity:1;stroke-width:0.521758"
       id="rect1768-6"
       width="104.14247"
       height="14.831725"
       x="-21.488331"
       y="28.639326"
       clip-path="url(#clipPath4021)"
       transform="translate(10.668432,-30.291653)" /></g><g
     inkscape:groupmode="layer"
     id="layer6"
     inkscape:label="3"
     style="display:inline"><rect
       style="fill:url(#linearGradient3158);fill-opacity:1;stroke-width:0.521758"
       id="rect1768-88"
       width="104.14247"
       height="14.831725"
       x="-21.488331"
       y="28.639326"
       clip-path="url(#clipPath3918)"
       transform="translate(0.33895601,-30.237459)" /></g><g
     inkscape:groupmode="layer"
     id="layer7"
     inkscape:label="4"
     style="display:inline"><rect
       style="fill:url(#linearGradient3077);fill-opacity:1;stroke-width:0.521758"
       id="rect1768-8"
       width="104.14247"
       height="14.831725"
       x="-21.488331"
       y="28.639326"
       clip-path="url(#clipPath3868)"
       transform="translate(-9.7208199,-30.364714)" /></g><g
     inkscape:groupmode="layer"
     id="layer8"
     inkscape:label="5"
     style="display:inline"><rect
       style="display:inline;fill:url(#linearGradient2996);fill-opacity:1;stroke-width:0.521758"
       id="rect1768-67"
       width="104.14247"
       height="14.831725"
       x="-21.488331"
       y="28.639326"
       clip-path="url(#clipPath3829)"
       transform="translate(-19.375256,-29.811266)" /></g><g
     inkscape:groupmode="layer"
     id="layer9"
     inkscape:label="6"
     style="display:inline"><rect
       style="fill:url(#linearGradient2915);fill-opacity:1;stroke-width:0.521758"
       id="rect1768-7"
       width="104.14247"
       height="14.831725"
       x="-21.488331"
       y="28.639326"
       clip-path="url(#clipPath3794)"
       transform="translate(-29.108704,-30.081893)" /></g><g
     inkscape:groupmode="layer"
     id="layer10"
     inkscape:label="7"
     style="display:inline"><rect
       style="display:inline;fill:url(#linearGradient2834);fill-opacity:1;stroke-width:0.521758"
       id="rect1768-3"
       width="104.14247"
       height="14.831725"
       x="-21.488331"
       y="28.639326"
       clip-path="url(#clipPath3755)"
       transform="translate(-39.876325,-30.550944)" /></g><g
     inkscape:groupmode="layer"
     id="layer11"
     inkscape:label="8"
     style="display:inline"><rect
       style="fill:url(#linearGradient3247);fill-opacity:1;stroke-width:0.521758"
       id="rect1768-4"
       width="104.14247"
       height="14.831725"
       x="-21.488331"
       y="28.639326"
       clip-path="url(#clipPath3612)"
       transform="translate(-50.779979,-29.904071)" /></g></svg>
