<!-- Created with Inkscape (http://www.inkscape.org/) --><svg xmlns:inkscape="http://www.inkscape.org/namespaces/inkscape" xmlns:sodipodi="http://sodipodi.sourceforge.net/DTD/sodipodi-0.dtd" xmlns="http://www.w3.org/2000/svg" xmlns:svg="http://www.w3.org/2000/svg" width="34.924999mm" height="34.924999mm" viewBox="0 0 34.924998 34.925002" version="1.1" id="svg5" inkscape:version="1.2.2 (b0a8486541, 2022-12-01)" sodipodi:docname="132px.tar" inkscape:export-filename="red_sun.png" inkscape:export-xdpi="95.999992" inkscape:export-ydpi="95.999992">
  <sodipodi:namedview id="namedview7" pagecolor="#ffffff" bordercolor="#000000" borderopacity="0.25" inkscape:showpageshadow="2" inkscape:pageopacity="0.0" inkscape:pagecheckerboard="0" inkscape:deskcolor="#d1d1d1" inkscape:document-units="mm" showgrid="false" inkscape:zoom="4.3616466" inkscape:cx="11.234289" inkscape:cy="64.195939" inkscape:window-width="1920" inkscape:window-height="1011" inkscape:window-x="0" inkscape:window-y="0" inkscape:window-maximized="1" inkscape:current-layer="layer17" inkscape:lockguides="false"/>
  <defs id="defs2">
    <inkscape:perspective sodipodi:type="inkscape:persp3d" inkscape:vp_x="0 : 28.677443 : 1" inkscape:vp_y="0 : 999.99996 : 0" inkscape:vp_z="22.611322 : 28.677443 : 1" inkscape:persp3d-origin="11.305663 : 26.594923 : 1" id="perspective1275"/>
  </defs>
  <g inkscape:groupmode="layer" id="layer11" inkscape:label="black sun" transform="translate(-47.646389,23.644434)" style="display:inline">
    <g id="g1913" transform="matrix(5.2335414,0,0,5.2335414,-232.88487,-667.34451)">
      <path sodipodi:type="star" style="fill:none;stroke:#000000;stroke-width:1.13386;stroke-dasharray:none;stroke-opacity:1" id="path1161-6-7-5" inkscape:flatsided="false" sodipodi:sides="32" sodipodi:cx="147.62866" sodipodi:cy="46.362209" sodipodi:r1="10.874957" sodipodi:r2="0.10874957" sodipodi:arg1="1.5606422" sodipodi:arg2="1.658817" inkscape:rounded="-0.06" inkscape:randomized="0" d="m 147.73909,57.236606 c 0.64597,-0.0066 -0.76349,-10.822856 -0.11999,-10.766068 0.64351,0.05679 -2.63846,10.459073 -2.00363,10.578662 0.63484,0.119589 1.36262,-10.763847 1.98268,-10.582609 0.62006,0.181239 -4.62823,9.743366 -4.02892,9.984508 0.59931,0.241142 3.43636,-10.291189 4.00914,-9.992466 0.57279,0.298724 -6.44013,8.653227 -5.89938,9.006655 0.54074,0.353428 5.37804,-9.423047 5.88154,-9.018318 0.5035,0.404729 -8.00455,7.230548 -7.54315,7.68268 0.46141,0.452132 7.11305,-8.192782 7.52792,-7.697601 0.41487,0.495181 -9.26136,5.530004 -8.89702,6.063465 0.36434,0.533461 8.57471,-6.647673 8.885,-6.081069 0.31029,0.566603 -10.16226,3.616945 -9.90899,4.211234 0.25326,0.594289 9.70684,-4.847098 9.90063,-4.230846 0.19379,0.616251 -10.67262,1.564889 -10.54016,2.197168 0.13245,0.632279 10.46595,-2.860251 10.53579,-2.218034 0.0698,0.642217 -10.77284,-0.547305 -10.76628,0.09867 0.007,0.645971 10.82285,-0.763487 10.76606,-0.119984 -0.0568,0.643504 -10.45907,-2.638466 -10.57866,-2.003627 -0.11959,0.634838 10.76385,1.362618 10.58261,1.982677 -0.18124,0.62006 -9.74337,-4.628232 -9.98451,-4.028923 -0.24114,0.59931 10.29119,3.436358 9.99247,4.009146 -0.29873,0.572787 -8.65323,-6.440139 -9.00666,-5.89939 -0.35342,0.54075 9.42305,5.378041 9.01832,5.881544 -0.40473,0.503504 -7.23055,-8.004553 -7.68268,-7.543145 -0.45213,0.461409 8.19278,7.113048 7.6976,7.527919 -0.49518,0.41487 -5.53,-9.261359 -6.06346,-8.897023 -0.53346,0.364336 6.64767,8.574706 6.08107,8.884999 -0.56661,0.310294 -3.61695,-10.162254 -4.21124,-9.908992 -0.59429,0.253263 4.8471,9.706842 4.23085,9.900634 -0.61625,0.193793 -1.56489,-10.67262 -2.19717,-10.540164 -0.63228,0.132456 2.86025,10.465949 2.21803,10.535793 -0.64221,0.06984 0.54731,-10.772844 -0.0987,-10.766284 -0.64597,0.0066 0.76349,10.822856 0.11998,10.766068 -0.6435,-0.05679 2.63847,-10.459073 2.00363,-10.578662 -0.63484,-0.119589 -1.36262,10.763847 -1.98268,10.582608 -0.62006,-0.181238 4.62823,-9.743365 4.02893,-9.984507 -0.59931,-0.241143 -3.43636,10.291189 -4.00915,9.992465 -0.57279,-0.298723 6.44014,-8.653226 5.89939,-9.006654 -0.54075,-0.353428 -5.37804,9.423047 -5.88155,9.018318 -0.5035,-0.404729 8.00456,-7.230548 7.54315,-7.682681 -0.46141,-0.452132 -7.11305,8.192782 -7.52792,7.697601 -0.41487,-0.495181 9.26136,-5.530004 8.89702,-6.063465 -0.36433,-0.533461 -8.5747,6.647673 -8.88499,6.08107 -0.3103,-0.566603 10.16225,-3.616945 9.90899,-4.211234 -0.25327,-0.594289 -9.70684,4.847097 -9.90064,4.230846 -0.19379,-0.616252 10.67262,-1.564889 10.54017,-2.197168 -0.13246,-0.632279 -10.46595,2.860251 -10.5358,2.218034 -0.0698,-0.642218 10.77285,0.547304 10.76629,-0.09867 -0.007,-0.645971 -10.82286,0.763486 -10.76607,0.119983 0.0568,-0.643503 10.45907,2.638466 10.57866,2.003628 0.11959,-0.634839 -10.76384,-1.362618 -10.58261,-1.982678 0.18124,-0.620059 9.74337,4.628233 9.98451,4.028923 0.24114,-0.599309 -10.29119,-3.436357 -9.99246,-4.009145 0.29872,-0.572788 8.65322,6.440139 9.00665,5.899389 0.35343,-0.540749 -9.42305,-5.37804 -9.01832,-5.881544 0.40473,-0.503503 7.23055,8.004554 7.68268,7.543145 0.45214,-0.461408 -8.19278,-7.113048 -7.6976,-7.527918 0.49518,-0.41487 5.53001,9.261359 6.06347,8.897022 0.53346,-0.364336 -6.64768,-8.574705 -6.08107,-8.884999 0.5666,-0.310293 3.61694,10.162255 4.21123,9.908992 0.59429,-0.253262 -4.8471,-9.706841 -4.23084,-9.900634 0.61625,-0.193792 1.56488,10.672621 2.19716,10.540165 0.63228,-0.132456 -2.86025,-10.465949 -2.21803,-10.535794 0.64222,-0.06984 -0.5473,10.772844 0.0987,10.766285 z" transform="matrix(0.21175287,0.158635,-0.158635,0.21175287,33.033095,93.095371)"/>
      <ellipse style="fill:#f50000;fill-opacity:1;stroke:none;stroke-width:0.3;stroke-dasharray:none;stroke-opacity:1" id="path1291-3" cx="56.93922" cy="126.33177" rx="1.3526994" ry="1.3526993"/>
    </g>
  </g>
  </svg>